<?xml version="1.0" standalone="no"?>
<!DOCTYPE svg PUBLIC "-//W3C//DTD SVG 20010904//EN"
 "http://www.w3.org/TR/2001/REC-SVG-20010904/DTD/svg10.dtd">
<svg version="1.0" xmlns="http://www.w3.org/2000/svg"
 width="1667.000000pt" height="1667.000000pt" viewBox="0 0 1667.000000 1667.000000"
 preserveAspectRatio="xMidYMid meet">
<metadata>
Created by potrace 1.14, written by Peter Selinger 2001-2017
</metadata>
<g transform="translate(0.000000,1667.000000) scale(0.100000,-0.100000)"
fill="#000000" stroke="none">
<path d="M8049 16626 c-2 -2 -60 -6 -129 -10 -69 -4 -143 -9 -165 -11 -174
-17 -208 -21 -275 -30 -25 -4 -61 -9 -80 -11 -1296 -179 -2540 -762 -3520
-1652 -107 -97 -360 -348 -434 -432 -27 -30 -70 -78 -95 -106 -54 -60 -67 -75
-175 -208 -45 -55 -116 -146 -157 -201 -41 -55 -76 -102 -79 -105 -15 -14
-274 -412 -306 -470 -10 -19 -22 -36 -26 -38 -5 -2 -8 -7 -8 -12 0 -5 -23 -48
-51 -97 -161 -277 -355 -707 -476 -1053 -87 -251 -209 -689 -238 -860 -3 -19
-15 -80 -25 -135 -10 -55 -21 -118 -25 -140 -3 -22 -10 -67 -15 -100 -5 -33
-12 -87 -16 -120 -3 -33 -8 -73 -10 -90 -2 -16 -6 -59 -9 -95 -4 -36 -8 -78
-10 -95 -10 -81 -19 -343 -19 -535 0 -231 6 -335 29 -485 2 -16 7 -52 11 -80
8 -63 57 -313 84 -425 11 -47 22 -95 25 -107 14 -59 119 -403 159 -518 190
-553 504 -1246 839 -1855 17 -30 40 -73 52 -95 73 -132 93 -167 132 -233 24
-41 43 -75 43 -77 0 -2 28 -50 61 -107 34 -57 73 -123 87 -148 14 -25 38 -64
53 -87 16 -23 29 -44 29 -47 0 -5 164 -273 258 -421 28 -44 63 -100 78 -125
81 -132 459 -700 649 -975 57 -82 121 -175 142 -205 21 -30 117 -165 213 -299
96 -133 188 -262 205 -284 16 -23 122 -166 234 -317 113 -151 213 -286 222
-300 9 -14 25 -34 35 -45 11 -11 59 -74 108 -140 49 -66 92 -122 95 -125 3 -3
35 -43 71 -90 142 -187 536 -684 774 -975 76 -93 175 -215 219 -270 45 -55 84
-102 87 -105 3 -3 48 -57 100 -120 52 -63 97 -117 100 -120 3 -3 39 -45 80
-95 99 -119 109 -131 165 -195 314 -362 745 -555 1220 -545 71 2 148 6 170 10
130 20 148 24 275 60 108 30 278 114 400 196 148 101 231 181 414 399 66 80
129 154 138 165 9 11 67 81 129 155 62 74 133 159 158 188 25 29 52 63 60 75
8 12 18 24 21 27 6 5 187 227 265 325 21 28 42 52 45 55 3 3 21 25 40 50 19
25 43 54 52 65 9 11 49 61 88 110 39 50 76 97 83 105 7 8 84 107 173 220 410
524 785 1024 1157 1545 444 621 682 975 1122 1670 87 137 345 565 345 572 0 2
15 27 33 56 18 29 62 104 97 167 35 63 70 123 78 133 8 9 12 17 8 17 -4 0 1
12 12 27 17 26 41 69 174 318 42 78 324 646 348 700 5 11 32 69 60 129 27 59
50 110 50 113 0 4 65 156 106 248 19 44 104 265 104 271 0 3 7 20 15 37 29 64
156 457 204 632 42 156 90 357 105 448 3 15 9 53 15 85 11 66 17 107 26 177 3
28 8 64 10 80 10 72 18 261 18 395 0 148 -11 437 -17 481 -3 13 -7 62 -11 109
-3 47 -8 100 -11 118 -2 17 -6 47 -8 65 -3 17 -8 59 -11 92 -4 33 -8 67 -11
75 -2 8 -6 33 -9 55 -3 22 -7 51 -10 65 -2 13 -7 42 -11 65 -3 22 -21 114 -40
203 -161 773 -432 1446 -867 2157 -88 143 -383 560 -443 625 -8 8 -44 51 -80
95 -192 232 -401 451 -619 650 -54 50 -106 97 -115 105 -60 56 -315 261 -430
346 -216 159 -485 333 -684 443 -31 17 -80 44 -108 60 -410 225 -940 435
-1413 562 -130 34 -345 86 -395 94 -19 3 -66 12 -105 20 -125 25 -314 54 -460
70 -33 3 -71 8 -85 10 -14 2 -61 7 -105 10 -44 4 -98 9 -120 11 -50 5 -741 14
-746 10z m521 -2650 c52 -3 113 -8 135 -11 22 -3 58 -7 80 -9 34 -4 88 -12
270 -43 57 -9 330 -82 420 -111 299 -98 607 -247 865 -419 141 -94 136 -90
265 -192 148 -117 187 -152 346 -313 197 -198 426 -497 559 -728 58 -102 198
-394 243 -510 86 -220 178 -558 201 -740 7 -50 17 -121 21 -149 20 -122 28
-584 13 -746 -15 -159 -47 -373 -68 -455 -5 -19 -12 -47 -15 -62 -3 -16 -7
-38 -10 -50 -10 -48 -87 -296 -117 -378 -122 -334 -308 -672 -527 -960 -52
-69 -98 -127 -102 -130 -4 -3 -23 -25 -44 -50 -48 -58 -233 -249 -316 -324
-365 -333 -826 -601 -1304 -761 -164 -54 -390 -112 -510 -129 -22 -4 -65 -11
-95 -16 -60 -10 -140 -20 -210 -27 -169 -15 -639 -9 -755 11 -16 2 -59 8 -95
11 -36 4 -68 9 -71 11 -4 2 -27 6 -50 9 -68 9 -262 54 -392 91 -268 77 -612
226 -832 361 -11 7 -27 16 -35 20 -49 23 -360 241 -390 273 -3 3 -27 23 -55
45 -82 65 -113 94 -250 230 -155 154 -214 221 -329 375 -47 63 -90 120 -96
127 -5 7 -10 16 -10 22 0 5 -4 11 -9 13 -8 3 -75 106 -144 223 -82 137 -212
416 -273 587 -27 74 -100 311 -108 351 -3 12 -7 31 -10 42 -15 62 -38 174 -42
200 -2 17 -6 43 -10 58 -6 30 -7 35 -18 127 -17 137 -28 290 -29 430 -1 118 9
359 18 411 2 13 6 50 10 83 4 32 8 68 10 80 2 11 6 37 9 56 3 19 8 46 11 60
12 60 15 76 19 100 18 106 108 415 158 540 169 426 358 745 642 1085 63 75
331 344 410 410 277 236 565 415 941 585 206 93 596 208 835 245 66 10 89 13
155 21 33 3 69 8 80 10 11 2 72 7 135 10 63 4 116 7 117 8 4 3 270 -2 353 -8z"/>
<path d="M7882 12573 c-4 -1 -28 -4 -53 -8 -65 -8 -118 -56 -152 -137 -14 -35
-49 -119 -78 -188 -28 -69 -57 -131 -63 -138 -9 -9 -58 -14 -177 -16 -144 -2
-169 -5 -204 -23 -60 -32 -105 -85 -185 -218 -40 -66 -89 -147 -110 -180 -21
-33 -82 -132 -135 -220 -54 -88 -103 -163 -109 -167 -6 -4 -118 -8 -249 -8
-269 0 -290 -4 -331 -67 -48 -72 -43 -147 13 -190 27 -21 134 -61 237 -88 54
-14 100 -28 103 -30 4 -4 -99 -150 -128 -182 -56 -60 -114 -140 -134 -186 -52
-113 -53 -121 -51 -983 1 -764 2 -803 20 -840 35 -71 61 -77 333 -77 253 1
280 3 318 28 45 30 55 75 56 242 0 102 4 153 11 154 13 1 3044 1 3066 0 13 -1
15 -22 15 -143 -2 -193 9 -229 80 -265 24 -13 75 -16 281 -16 231 0 255 1 290
20 22 11 45 34 56 55 18 34 19 79 19 859 1 588 -2 837 -10 869 -6 25 -14 54
-16 64 -7 29 -51 92 -130 186 -84 100 -158 207 -147 213 4 2 66 23 137 47 205
67 231 83 242 153 6 41 -38 126 -81 155 -33 23 -39 23 -273 22 -267 -1 -263
-1 -305 72 -14 24 -62 104 -107 178 -46 74 -110 180 -144 235 -143 238 -166
264 -257 299 -35 14 -76 18 -183 19 -84 0 -143 4 -151 11 -7 6 -46 90 -86 186
-84 203 -90 216 -124 252 -45 47 -75 50 -604 52 -270 0 -495 0 -500 -1z m1102
-2826 c29 -19 32 -36 31 -165 -1 -161 73 -144 -662 -144 -450 0 -626 3 -641
11 -25 13 -25 11 -27 146 -2 119 7 153 43 161 15 3 30 6 34 7 5 1 276 1 603 1
521 -1 598 -4 619 -17z"/>
</g>
</svg>
